# xmcd
#
# Track frame offsets: 
#        150
#        12970
#        30197
#        46270
#        56457
#        67322
#        82142
#        96937
#        119707
#        137825
#        150440
#        168170
#        180827
#        217180
#        246370
#
# Disc length: 3690 seconds
#
# Revision: 4
# Processed by: cddbd v1.5.2PL0 Copyright (c) Steve Scherf et al.
# Submitted via: ExactAudioCopyFreeDBPlugin 1.0
#
DISCID=cc0e680f
DTITLE=Various Artist - Giants Of Blues
DYEAR=1990
DGENRE=Blues
TTITLE0=John Lee Hooker - Hobo Blues
TTITLE1=John Lee Hooker - Blues before sunrise
TTITLE2=John Lee Hooker - Wednesday evening Blues
TTITLE3=Muddy Waters - Mean red spider
TTITLE4=Muddy Waters - Diamonds at your feet
TTITLE5=Muddy Waters - Rock me
TTITLE6=Sonny Terry and Brownie McGhee - Gonna lay my body down
TTITLE7=Sonny Terry and Brownie McGhee - Drinking in the Blues
TTITLE8=Sonny Terry and Brownie McGhee - I'm a stranger here
TTITLE9=Howlin Wolf - Ain't superstitious
TTITLE10=Howlin Wolf - Goin down slow
TTITLE11=Howlin Wolf - My mind is ramblin
TTITLE12=Big Joe Turner - Roll me Baby
TTITLE13=Big Joe Turner - Stormy monday Blues
TTITLE14=Big Joe Turner - How long Blues
EXTD=
EXTT0=
EXTT1=
EXTT2=
EXTT3=
EXTT4=
EXTT5=
EXTT6=
EXTT7=
EXTT8=
EXTT9=
EXTT10=
EXTT11=
EXTT12=
EXTT13=
EXTT14=
PLAYORDER=
